<?xml version="1.0" encoding="UTF-8"?>
<svg id="Layer_1" data-name="Layer 1" xmlns="http://www.w3.org/2000/svg" viewBox="0 0 9.98 18.03">
  <defs>
    <style>
      .cls-1 {
        fill: #1f1f1f;
        stroke-width: 0px;
      }
    </style>
  </defs>
  <path class="cls-1" d="m2.45,9.02l7.22,7.21c.2.2.3.44.3.73,0,.29-.11.53-.32.74-.21.21-.46.32-.75.32s-.53-.11-.75-.32L.38,9.94c-.14-.14-.24-.28-.29-.43-.06-.15-.09-.31-.09-.48s.03-.34.09-.49c.06-.15.16-.29.29-.43L8.17.31C8.37.11,8.62,0,8.91,0c.29,0,.55.1.76.31.2.21.31.46.31.75s-.1.54-.31.74l-7.22,7.22Z"/>
</svg>