<?xml version="1.0" encoding="UTF-8"?>
<svg id="Layer_1" data-name="Layer 1" xmlns="http://www.w3.org/2000/svg" xmlns:xlink="http://www.w3.org/1999/xlink" viewBox="0 0 16.36 14.24">
  <defs>
    <style>
      .cls-1 {
        fill: #9e9e9e;
      }

      .cls-1, .cls-2 {
        stroke-width: 0px;
      }

      .cls-2 {
        fill: #fff;
      }

      .cls-3 {
        mask: url(#mask-1);
      }

      .cls-4 {
        mask: url(#mask);
      }
    </style>
    <mask id="mask" x="6.06" y="0" width="10.3" height="14.24" maskUnits="userSpaceOnUse">
      <g id="path-1-inside-1_3009_14490" data-name="path-1-inside-1 3009 14490">
        <path class="cls-2" d="m9.24,2.12l5,5-5,5-1.06-1.06,3.94-3.94-3.94-3.94,1.06-1.06Z"/>
      </g>
    </mask>
    <mask id="mask-1" x="0" y="0" width="10.3" height="14.24" maskUnits="userSpaceOnUse">
      <g id="path-3-inside-2_3009_14490" data-name="path-3-inside-2 3009 14490">
        <path class="cls-2" d="m3.18,2.12l5,5-5,5-1.06-1.06,3.94-3.94-3.94-3.94,1.06-1.06Z"/>
      </g>
    </mask>
  </defs>
  <path class="cls-2" d="m9.24,2.12l5,5-5,5-1.06-1.06,3.94-3.94-3.94-3.94,1.06-1.06Z"/>
  <g class="cls-4">
    <path class="cls-1" d="m14.24,7.12l1.06,1.06,1.06-1.06-1.06-1.06-1.06,1.06Zm-5-5l1.06-1.06-1.06-1.06-1.06,1.06,1.06,1.06Zm0,10l-1.06,1.06,1.06,1.06,1.06-1.06-1.06-1.06Zm-1.06-8.94l-1.06-1.06-1.06,1.06,1.06,1.06,1.06-1.06Zm0,7.88l-1.06-1.06-1.06,1.06,1.06,1.06,1.06-1.06Zm3.94-3.94l1.06,1.06,1.06-1.06-1.06-1.06-1.06,1.06Zm2.12,0l1.06-1.06L10.3,1.06l-1.06,1.06-1.06,1.06,5,5,1.06-1.06Zm-5,5l1.06,1.06,5-5-1.06-1.06-1.06-1.06-5,5,1.06,1.06Zm0-10l-1.06-1.06-1.06,1.06,1.06,1.06,1.06,1.06,1.06-1.06-1.06-1.06Zm-1.06,8.94l-1.06,1.06,1.06,1.06,1.06-1.06,1.06-1.06-1.06-1.06-1.06,1.06Zm3.94-3.94l-1.06-1.06-3.94,3.94,1.06,1.06,1.06,1.06,3.94-3.94-1.06-1.06Zm-3.94-3.94l-1.06,1.06,3.94,3.94,1.06-1.06,1.06-1.06-3.94-3.94-1.06,1.06Z"/>
  </g>
  <path class="cls-2" d="m3.18,2.12l5,5-5,5-1.06-1.06,3.94-3.94-3.94-3.94,1.06-1.06Z"/>
  <g class="cls-3">
    <path class="cls-1" d="m8.18,7.12l1.06,1.06,1.06-1.06-1.06-1.06-1.06,1.06ZM3.18,2.12l1.06-1.06-1.06-1.06-1.06,1.06,1.06,1.06Zm0,10l-1.06,1.06,1.06,1.06,1.06-1.06-1.06-1.06ZM2.12,3.18l-1.06-1.06-1.06,1.06,1.06,1.06,1.06-1.06Zm0,7.88l-1.06-1.06-1.06,1.06,1.06,1.06,1.06-1.06Zm3.94-3.94l1.06,1.06,1.06-1.06-1.06-1.06-1.06,1.06Zm2.12,0l1.06-1.06L4.24,1.06l-1.06,1.06-1.06,1.06,5,5,1.06-1.06Zm-5,5l1.06,1.06,5-5-1.06-1.06-1.06-1.06-5,5,1.06,1.06Zm0-10l-1.06-1.06-1.06,1.06,1.06,1.06,1.06,1.06,1.06-1.06-1.06-1.06Zm-1.06,8.94l-1.06,1.06,1.06,1.06,1.06-1.06,1.06-1.06-1.06-1.06-1.06,1.06Zm3.94-3.94l-1.06-1.06-3.94,3.94,1.06,1.06,1.06,1.06,3.94-3.94-1.06-1.06Zm-3.94-3.94l-1.06,1.06,3.94,3.94,1.06-1.06,1.06-1.06-3.94-3.94-1.06,1.06Z"/>
  </g>
</svg>