<?xml version="1.0" encoding="UTF-8"?>
<svg id="Layer_1" data-name="Layer 1" xmlns="http://www.w3.org/2000/svg" viewBox="0 0 8.99 4.98">
  <defs>
    <style>
      .cls-1 {
        fill: #5c5c5c;
        stroke-width: 0px;
      }
    </style>
  </defs>
  <path class="cls-1" d="m4.49,4.98c-.09,0-.17-.01-.24-.04-.07-.03-.14-.08-.21-.15L.15.9C.05.8,0,.68,0,.54c0-.15.05-.27.16-.38.11-.11.23-.16.37-.16s.27.05.37.16l3.59,3.6L8.09.16c.1-.1.22-.15.36-.15s.27.05.37.16c.11.11.16.23.16.37s-.05.27-.16.37l-3.88,3.88c-.07.07-.14.12-.21.15-.07.03-.15.04-.24.04Z"/>
</svg>