<?xml version="1.0" encoding="UTF-8"?>
<svg id="Layer_1" data-name="Layer 1" xmlns="http://www.w3.org/2000/svg" viewBox="0 0 8.41 8.4">
  <defs>
    <style>
      .cls-1 {
        fill: #fff;
        fill-rule: evenodd;
        stroke-width: 0px;
      }
    </style>
  </defs>
  <path class="cls-1" d="m.2.21C.34.08.51,0,.7,0s.36.07.49.2l3.01,3.01L7.2.21c.06-.07.14-.12.23-.16C7.52.02,7.61,0,7.7,0c.09,0,.19.02.27.05.09.04.16.09.23.15.07.07.12.14.15.23.04.09.05.18.05.27,0,.09-.02.18-.06.27-.04.09-.09.16-.16.23l-3.01,3.01,3.01,3.01c.13.13.2.31.2.49,0,.18-.08.36-.2.49-.13.13-.31.2-.49.2-.18,0-.36-.07-.49-.2l-3.01-3.01-3.01,3.01c-.13.13-.31.2-.49.2-.18,0-.36-.08-.49-.2-.13-.13-.2-.31-.2-.49,0-.18.07-.36.2-.49l3.01-3.01L.2,1.2c-.13-.13-.2-.31-.2-.49S.07.34.2.21Z"/>
</svg>