<?xml version="1.0" encoding="UTF-8"?>
<svg id="Layer_1" data-name="Layer 1" xmlns="http://www.w3.org/2000/svg" viewBox="0 0 16.13 16.13">
  <defs>
    <style>
      .cls-1 {
        fill: #1f1f1f;
        stroke-width: 0px;
      }
    </style>
  </defs>
  <path class="cls-1" d="m8.08,9.54L1.8,15.82c-.21.21-.46.31-.74.31-.28,0-.53-.11-.74-.33-.21-.21-.32-.46-.32-.75s.11-.53.32-.74l6.27-6.27L.31,1.81C.1,1.6,0,1.35,0,1.06c0-.28.11-.53.33-.74.21-.21.46-.32.75-.32s.53.11.75.32l6.27,6.28L14.33.32c.2-.21.44-.32.73-.32s.53.11.75.32c.21.22.32.47.32.75s-.1.53-.32.74l-6.27,6.24,6.28,6.28c.21.21.32.46.32.74s-.11.53-.32.74c-.22.21-.47.32-.75.32s-.53-.1-.74-.32l-6.24-6.27Z"/>
</svg>