<?xml version="1.0" encoding="UTF-8"?>
<svg id="Layer_1" data-name="Layer 1" xmlns="http://www.w3.org/2000/svg" viewBox="0 0 17 17">
  <defs>
    <style>
      .cls-1 {
        fill: #1f1f1f;
        stroke-width: 0px;
      }
    </style>
  </defs>
  <path class="cls-1" d="m8.5,17c-2.43,0-4.45-.34-6.07-1.03-1.62-.69-2.43-1.54-2.43-2.57V3.5c0-.97.83-1.79,2.49-2.47,1.66-.68,3.66-1.03,6.01-1.03s4.35.34,6.01,1.03c1.66.68,2.49,1.51,2.49,2.47v9.9c0,1.03-.81,1.88-2.43,2.57-1.62.69-3.64,1.03-6.07,1.03Zm0-11.65c1.43,0,2.89-.21,4.37-.63,1.48-.42,2.4-.88,2.76-1.4-.36-.51-1.28-.99-2.75-1.42s-2.93-.65-4.38-.65-2.93.21-4.4.62c-1.47.42-2.39.88-2.76,1.4.37.54,1.28,1.02,2.73,1.44,1.46.42,2.93.63,4.43.63Zm-.01,5.19c.69,0,1.38-.04,2.06-.11.68-.07,1.33-.18,1.95-.32.62-.14,1.21-.31,1.76-.52.55-.21,1.05-.43,1.48-.69v-3.98c-.45.26-.94.49-1.49.7-.55.21-1.14.38-1.76.52-.63.14-1.28.25-1.95.32-.67.08-1.36.11-2.05.11s-1.4-.04-2.09-.12c-.69-.08-1.34-.19-1.96-.33s-1.2-.31-1.74-.51c-.54-.2-1.02-.43-1.44-.69v3.98c.42.25.9.48,1.43.68.54.2,1.12.38,1.74.52.62.14,1.27.25,1.96.32.69.07,1.39.11,2.1.11Zm.01,5.21c.83,0,1.65-.06,2.46-.18.81-.12,1.55-.28,2.21-.49.66-.2,1.22-.44,1.68-.71.46-.27.76-.55.89-.84v-3.36c-.43.26-.93.49-1.48.69-.55.2-1.14.37-1.76.51-.62.14-1.27.25-1.95.32-.68.07-1.37.11-2.07.11s-1.42-.04-2.1-.11c-.69-.07-1.34-.18-1.96-.32-.62-.14-1.2-.31-1.73-.51s-1.02-.43-1.44-.68v3.38c.13.29.42.57.87.84.45.26,1.01.5,1.68.7.67.2,1.4.36,2.22.48.81.12,1.64.18,2.47.18Z"/>
</svg>