<?xml version="1.0" encoding="UTF-8"?>
<svg id="Layer_1" data-name="Layer 1" xmlns="http://www.w3.org/2000/svg" viewBox="0 0 13.9 14.17">
  <defs>
    <style>
      .cls-1 {
        fill: #1f1f1f;
        stroke-width: 0px;
      }
    </style>
  </defs>
  <path class="cls-1" d="m1.3,14.17c-.36,0-.66-.13-.92-.38-.26-.26-.38-.56-.38-.92V1.3c0-.36.13-.66.38-.92.26-.26.56-.38.92-.38h5.26c.15,0,.27.05.37.15.1.1.15.23.15.38s-.05.27-.15.37c-.1.1-.22.15-.37.15H1.3c-.06,0-.12.03-.18.08-.05.05-.08.11-.08.18v11.56c0,.06.03.12.08.18.05.05.11.08.18.08h5.26c.15,0,.27.05.37.15.1.1.15.23.15.38s-.05.27-.15.37c-.1.1-.22.15-.37.15H1.3Zm10.84-6.56h-6.96c-.15,0-.27-.05-.37-.15-.1-.1-.15-.23-.15-.37s.05-.27.15-.37c.1-.1.22-.15.37-.15h6.94l-1.66-1.66c-.1-.1-.15-.22-.15-.36,0-.14.05-.26.16-.37.11-.11.23-.16.37-.16.14,0,.27.05.38.16l2.48,2.48c.13.13.19.29.19.46s-.06.32-.19.45l-2.47,2.47c-.1.1-.22.15-.36.15-.14,0-.27-.06-.38-.16-.1-.11-.15-.23-.15-.38,0-.14.06-.26.16-.37l1.65-1.65Z"/>
</svg>