<?xml version="1.0" encoding="UTF-8"?>
<svg id="Layer_1" data-name="Layer 1" xmlns="http://www.w3.org/2000/svg" viewBox="0 0 63.33 63.33">
  <defs>
    <style>
      .cls-1 {
        fill: #218011;
        stroke-width: 0px;
      }
    </style>
  </defs>
  <path class="cls-1" d="m26.81,39.6l-8.22-8.24c-.42-.4-.92-.61-1.51-.62-.59-.01-1.11.21-1.56.65-.42.42-.63.93-.63,1.52s.21,1.1.63,1.52l9.46,9.5c.52.53,1.13.8,1.83.8s1.31-.27,1.83-.8l19.07-19.05c.42-.44.64-.95.65-1.55.01-.59-.21-1.11-.65-1.56-.45-.42-.97-.63-1.57-.62-.6.01-1.11.23-1.54.65l-17.8,17.79Zm4.86,23.74c-4.36,0-8.46-.83-12.31-2.49-3.85-1.66-7.2-3.93-10.07-6.8-2.87-2.87-5.14-6.22-6.8-10.07-1.66-3.85-2.49-7.95-2.49-12.3s.83-8.5,2.49-12.35c1.66-3.85,3.93-7.21,6.8-10.06,2.87-2.85,6.22-5.11,10.07-6.77,3.84-1.66,7.95-2.49,12.3-2.49s8.5.83,12.35,2.49c3.85,1.66,7.21,3.92,10.06,6.77,2.85,2.85,5.11,6.2,6.77,10.05,1.66,3.85,2.49,7.97,2.49,12.35s-.83,8.46-2.49,12.31c-1.66,3.85-3.92,7.2-6.77,10.07-2.85,2.87-6.2,5.14-10.05,6.8-3.85,1.66-7.97,2.49-12.35,2.49Zm0-4.19c7.65,0,14.15-2.67,19.48-8.01,5.33-5.34,8-11.83,8-19.46s-2.67-14.15-8-19.48c-5.33-5.33-11.83-8-19.48-8s-14.12,2.67-19.46,8c-5.34,5.33-8.01,11.83-8.01,19.48s2.67,14.12,8.01,19.46c5.34,5.34,11.83,8.01,19.46,8.01Z"/>
</svg>