<?xml version="1.0" encoding="UTF-8"?>
<svg id="Layer_1" data-name="Layer 1" xmlns="http://www.w3.org/2000/svg" viewBox="0 0 28 27.94">
  <defs>
    <style>
      .cls-1 {
        fill: #fff;
        stroke-width: 0px;
      }
    </style>
  </defs>
  <path class="cls-1" d="m14,1.34C14,.56,14.63-.07,15.4,0c2.46.25,4.82,1.14,6.83,2.6,2.39,1.74,4.17,4.19,5.09,7,.91,2.81.91,5.84,0,8.65-.91,2.81-2.69,5.26-5.09,7-2.39,1.74-5.27,2.67-8.23,2.67s-5.84-.94-8.23-2.67c-2.39-1.74-4.17-4.19-5.09-7C-.08,15.9-.21,13.38.32,10.96c.16-.76.96-1.16,1.7-.92.74.24,1.13,1.03.98,1.79-.35,1.85-.24,3.76.35,5.57.73,2.25,2.16,4.21,4.07,5.6,1.91,1.39,4.22,2.14,6.58,2.14s4.67-.75,6.58-2.14c1.91-1.39,3.34-3.35,4.07-5.6.73-2.25.73-4.67,0-6.92-.73-2.25-2.16-4.21-4.07-5.6-1.53-1.11-3.32-1.82-5.19-2.05-.77-.1-1.4-.71-1.4-1.49Z"/>
</svg>