<?xml version="1.0" encoding="UTF-8"?>
<svg id="Layer_1" data-name="Layer 1" xmlns="http://www.w3.org/2000/svg" viewBox="0 0 15 19">
  <defs>
    <style>
      .cls-1 {
        fill: #1f1f1f;
        stroke-width: 0px;
      }
    </style>
  </defs>
  <path class="cls-1" d="m4.32,9.91h6.36c.18,0,.33-.06.45-.18.12-.12.18-.27.18-.45s-.06-.33-.18-.45c-.12-.12-.27-.18-.45-.18h-6.36c-.18,0-.33.06-.45.18-.12.12-.18.27-.18.45s.06.33.18.45c.12.12.27.18.45.18Zm0,2.88h6.36c.18,0,.33-.06.45-.18.12-.12.18-.27.18-.45s-.06-.33-.18-.45c-.12-.12-.27-.18-.45-.18h-6.36c-.18,0-.33.06-.45.18-.12.12-.18.27-.18.45s.06.33.18.45c.12.12.27.18.45.18Zm0,2.88h3.36c.18,0,.33-.06.45-.18.12-.12.18-.27.18-.45s-.06-.33-.18-.45c-.12-.12-.27-.18-.45-.18h-3.36c-.18,0-.33.06-.45.18-.12.12-.18.27-.18.45s.06.33.18.45c.12.12.27.18.45.18Zm-2.76,3.32c-.43,0-.8-.15-1.1-.46-.31-.31-.46-.67-.46-1.1V1.56c0-.43.15-.8.46-1.1s.67-.46,1.1-.46h7.79c.22,0,.42.04.61.13.19.08.36.2.5.34l4.06,4.06c.14.14.25.31.34.5.08.19.13.4.13.61v11.79c0,.43-.15.8-.46,1.1-.31.31-.67.46-1.1.46H1.56ZM13.74,5.59h-3.19c-.32,0-.6-.12-.83-.35-.23-.23-.35-.51-.35-.83V1.26H1.56c-.08,0-.15.03-.21.1-.06.06-.1.13-.1.21v15.87c0,.08.03.15.1.21.06.06.13.1.21.1h11.87c.08,0,.15-.03.21-.1.06-.06.1-.13.1-.21V5.59Z"/>
</svg>