<?xml version="1.0" encoding="UTF-8"?>
<svg id="Layer_1" data-name="Layer 1" xmlns="http://www.w3.org/2000/svg" viewBox="0 0 15 15">
  <defs>
    <style>
      .cls-1 {
        fill: #fff;
        stroke-width: 0px;
      }
    </style>
  </defs>
  <path class="cls-1" d="m7.5,11.06c-.1,0-.2-.02-.29-.06-.09-.04-.17-.1-.25-.18l-3.2-3.2c-.12-.13-.18-.27-.18-.44,0-.17.07-.32.19-.45.13-.13.28-.2.45-.2.17,0,.32.06.45.19l2.2,2.21V.63c0-.18.06-.33.18-.45.12-.12.27-.18.45-.18s.33.06.45.18c.12.12.18.27.18.45v8.32l2.21-2.21c.12-.12.27-.18.44-.18.17,0,.32.07.46.2.12.13.18.28.18.45,0,.17-.06.32-.19.44l-3.19,3.19c-.08.08-.17.14-.26.18-.09.04-.19.06-.29.06Zm-5.93,3.94c-.43,0-.8-.15-1.1-.46-.31-.31-.46-.67-.46-1.1v-2.36c0-.18.06-.33.18-.45.12-.12.27-.18.45-.18s.33.06.45.18c.12.12.18.27.18.45v2.36c0,.08.03.15.1.21.06.06.13.1.21.1h11.87c.08,0,.15-.03.21-.1.06-.06.1-.13.1-.21v-2.36c0-.18.06-.33.18-.45.12-.12.27-.18.45-.18s.33.06.45.18c.12.12.18.27.18.45v2.36c0,.43-.15.8-.46,1.1-.31.31-.67.46-1.1.46H1.56Z"/>
</svg>