<?xml version="1.0" encoding="UTF-8"?>
<svg id="Layer_1" data-name="Layer 1" xmlns="http://www.w3.org/2000/svg" viewBox="0 0 15 19">
  <defs>
    <style>
      .cls-1 {
        fill: #cc7b22;
        stroke-width: 0px;
      }
    </style>
  </defs>
  <path class="cls-1" d="m4.32,9.91h6.36c.18,0,.33-.06.45-.18.12-.12.18-.27.18-.45s-.06-.33-.18-.45c-.12-.12-.27-.18-.45-.18h-6.36c-.18,0-.33.06-.45.18-.12.12-.18.27-.18.45s.06.33.18.45c.12.12.27.18.45.18Zm0,2.88h6.36c.18,0,.33-.06.45-.18.12-.12.18-.27.18-.45s-.06-.33-.18-.45c-.12-.12-.27-.18-.45-.18h-6.36c-.18,0-.33.06-.45.18-.12.12-.18.27-.18.45s.06.33.18.45c.12.12.27.18.45.18Zm0,2.88h3.36c.18,0,.33-.06.45-.18.12-.12.18-.27.18-.45s-.06-.33-.18-.45c-.12-.12-.27-.18-.45-.18h-3.36c-.18,0-.33.06-.45.18-.12.12-.18.27-.18.45s.06.33.18.45c.12.12.27.18.45.18Zm-2.76,3.32c-.43,0-.8-.15-1.1-.46-.31-.31-.46-.67-.46-1.1V1.56c0-.43.15-.8.46-1.1s.67-.46,1.1-.46h7.79c.22,0,.42.04.61.13.19.08.36.2.5.34l4.06,4.06c.14.14.25.31.34.5.08.19.13.4.13.61v11.79c0,.43-.15.8-.46,1.1-.31.31-.67.46-1.1.46H1.56Zm7.81-14.19c0,.22.08.4.23.55.15.15.34.23.55.23h3.59L9.38,1.26v3.55Z"/>
</svg>