<?xml version="1.0" encoding="UTF-8"?>
<svg id="Layer_1" data-name="Layer 1" xmlns="http://www.w3.org/2000/svg" viewBox="0 0 63.33 63.33">
  <defs>
    <style>
      .cls-1 {
        fill: #c20b2a;
        stroke-width: 0px;
      }
    </style>
  </defs>
  <path class="cls-1" d="m31.67,47.44c.69,0,1.27-.23,1.73-.68.46-.46.68-1.03.68-1.73s-.23-1.27-.68-1.73c-.46-.46-1.03-.68-1.73-.68s-1.27.23-1.73.68c-.46.46-.68,1.03-.68,1.73s.23,1.27.68,1.73c.46.46,1.03.68,1.73.68Zm.14-11.9c.6,0,1.09-.2,1.49-.6.4-.4.59-.9.59-1.49v-16.34c0-.59-.2-1.09-.6-1.49-.4-.4-.9-.6-1.5-.6s-1.09.2-1.49.6c-.4.4-.59.9-.59,1.49v16.34c0,.59.2,1.09.6,1.49.4.4.9.6,1.5.6Zm-.11,27.8c-4.38,0-8.49-.83-12.33-2.49-3.84-1.66-7.19-3.93-10.06-6.8-2.87-2.87-5.13-6.22-6.8-10.06-1.66-3.84-2.49-7.95-2.49-12.34s.83-8.48,2.49-12.33c1.66-3.85,3.93-7.2,6.79-10.05,2.87-2.85,6.22-5.11,10.06-6.77,3.84-1.66,7.95-2.49,12.34-2.49s8.48.83,12.33,2.49c3.85,1.66,7.2,3.92,10.05,6.77,2.85,2.85,5.11,6.2,6.77,10.05,1.66,3.85,2.49,7.96,2.49,12.33s-.83,8.49-2.49,12.33c-1.66,3.84-3.92,7.19-6.77,10.05-2.85,2.86-6.2,5.13-10.05,6.8-3.85,1.67-7.96,2.51-12.33,2.51Zm0-4.19c7.64,0,14.12-2.67,19.45-8.01,5.33-5.34,8-11.84,8-19.49s-2.66-14.12-7.99-19.45c-5.33-5.33-11.82-8-19.49-8s-14.12,2.66-19.46,7.99c-5.34,5.32-8.01,11.82-8.01,19.49s2.67,14.12,8.01,19.46c5.34,5.34,11.84,8.01,19.49,8.01Z"/>
</svg>