<?xml version="1.0" encoding="UTF-8"?>
<svg id="Layer_1" data-name="Layer 1" xmlns="http://www.w3.org/2000/svg" viewBox="0 0 6.43 3.47">
  <defs>
    <style>
      .cls-1 {
        fill: #1f1f1f;
        stroke-width: 0px;
      }
    </style>
  </defs>
  <path class="cls-1" d="m2.87,3.31L.11.56s-.06-.06-.08-.1c-.02-.04-.03-.08-.03-.13,0-.09.03-.17.09-.24.06-.07.14-.1.23-.1h5.78c.1,0,.18.03.23.1.06.07.09.15.09.24,0,.02-.04.1-.11.23l-2.75,2.74s-.1.09-.16.12c-.06.03-.12.04-.19.04s-.13-.01-.19-.04c-.06-.03-.11-.07-.16-.12Z"/>
</svg>