<?xml version="1.0" encoding="UTF-8"?>
<svg id="Layer_1" data-name="Layer 1" xmlns="http://www.w3.org/2000/svg" viewBox="0 0 14.1 14.1">
  <defs>
    <style>
      .cls-1 {
        fill: #9e9e9e;
        stroke-width: 0px;
      }
    </style>
  </defs>
  <path class="cls-1" d="m5.07,10.11c-1.42,0-2.62-.49-3.6-1.47-.98-.98-1.47-2.18-1.47-3.58S.49,2.46,1.47,1.47c.98-.98,2.18-1.47,3.58-1.47s2.6.49,3.58,1.47c.98.98,1.47,2.18,1.47,3.58,0,.59-.1,1.16-.3,1.7-.2.55-.48,1.04-.84,1.47l4.98,4.96c.1.1.15.22.15.37,0,.15-.05.28-.15.38-.11.1-.23.16-.38.16s-.28-.05-.38-.16l-4.97-4.97c-.42.36-.9.64-1.45.83-.55.2-1.12.3-1.7.3Zm0-1.05c1.12,0,2.06-.39,2.84-1.17.78-.78,1.16-1.72,1.16-2.84s-.39-2.06-1.16-2.84c-.78-.78-1.72-1.17-2.84-1.17s-2.07.39-2.85,1.17-1.17,1.72-1.17,2.84.39,2.06,1.17,2.84c.78.78,1.73,1.17,2.85,1.17Z"/>
</svg>