<?xml version="1.0" encoding="UTF-8"?>
<svg id="Layer_1" data-name="Layer 1" xmlns="http://www.w3.org/2000/svg" viewBox="0 0 15.05 10.6">
  <defs>
    <style>
      .cls-1 {
        fill: #fff;
        stroke-width: 0px;
      }
    </style>
  </defs>
  <path class="cls-1" d="m5.03,9.12L13.96.18C14.08.06,14.23,0,14.4,0c.17,0,.32.06.45.19.13.13.2.28.2.45s-.07.32-.2.45L5.58,10.37c-.16.16-.34.23-.55.23s-.39-.08-.55-.23L.18,6.07C.06,5.94,0,5.8,0,5.62c0-.17.07-.32.2-.45.13-.13.28-.19.45-.19s.32.06.45.19l3.93,3.95Z"/>
</svg>