<?xml version="1.0" encoding="UTF-8"?>
<svg id="Layer_1" data-name="Layer 1" xmlns="http://www.w3.org/2000/svg" viewBox="0 0 64 63.85">
  <defs>
    <style>
      .cls-1 {
        fill: #cc7b22;
        stroke-width: 0px;
      }
    </style>
  </defs>
  <path class="cls-1" d="m32,3.05c0-1.77,1.44-3.22,3.19-3.04,5.62.56,11.01,2.61,15.61,5.95,5.47,3.97,9.54,9.57,11.62,16,2.09,6.43,2.09,13.35,0,19.78-2.09,6.43-6.16,12.03-11.62,16-5.47,3.97-12.05,6.11-18.81,6.11s-13.34-2.14-18.81-6.11c-5.47-3.97-9.54-9.57-11.62-16C-.19,36.33-.47,30.57.73,25.05c.38-1.73,2.2-2.65,3.88-2.1,1.68.55,2.58,2.35,2.25,4.09-.81,4.22-.54,8.6.8,12.72,1.67,5.14,4.93,9.62,9.3,12.8,4.37,3.18,9.64,4.89,15.05,4.89s10.67-1.71,15.05-4.89c4.37-3.18,7.63-7.66,9.3-12.8,1.67-5.14,1.67-10.68,0-15.82-1.67-5.14-4.93-9.62-9.3-12.8-3.51-2.55-7.59-4.15-11.86-4.69-1.75-.22-3.19-1.63-3.19-3.4Z"/>
</svg>