<?xml version="1.0" encoding="UTF-8"?>
<svg id="Layer_1" data-name="Layer 1" xmlns="http://www.w3.org/2000/svg" viewBox="0 0 17.01 16.98">
  <defs>
    <style>
      .cls-1 {
        fill: #cc7b22;
        stroke-width: 0px;
      }
    </style>
  </defs>
  <path class="cls-1" d="m8.51,7.49c2.45,0,4.48-.38,6.09-1.12,1.61-.75,2.41-1.62,2.41-2.62s-.8-1.89-2.41-2.63c-1.61-.74-3.64-1.12-6.09-1.12S4.02.36,2.41,1.11C.8,1.85,0,2.73,0,3.74s.8,1.87,2.41,2.62c1.61.75,3.64,1.12,6.09,1.12h.01Zm0,2.02c.82,0,1.7-.07,2.63-.2.94-.14,1.82-.34,2.65-.62.83-.28,1.54-.63,2.14-1.05.59-.43.96-.93,1.08-1.5v2.73c-.13.58-.49,1.08-1.08,1.5-.59.43-1.31.78-2.14,1.05-.83.28-1.72.48-2.65.62-.94.14-1.82.2-2.63.2s-1.69-.07-2.63-.2c-.94-.14-1.83-.34-2.65-.62-.83-.28-1.54-.63-2.13-1.06-.59-.43-.96-.92-1.08-1.49v-2.73c.13.57.49,1.07,1.08,1.49.59.43,1.31.78,2.13,1.06.83.28,1.71.49,2.65.62.94.14,1.82.2,2.63.2Zm0,4.75c.82,0,1.7-.07,2.63-.2.94-.14,1.82-.34,2.65-.62.83-.28,1.54-.63,2.14-1.05.59-.43.96-.93,1.08-1.5v2.72c-.13.58-.49,1.08-1.08,1.5-.59.43-1.31.78-2.14,1.05-.83.28-1.72.48-2.65.62-.94.14-1.82.2-2.63.2s-1.69-.07-2.63-.2c-.94-.14-1.83-.34-2.65-.62-.83-.28-1.54-.63-2.13-1.06-.59-.43-.96-.92-1.08-1.49v-2.72c.13.57.49,1.07,1.08,1.49.59.43,1.31.78,2.13,1.06.83.28,1.71.49,2.65.62.94.14,1.82.2,2.63.2Z"/>
</svg>