<?xml version="1.0" encoding="UTF-8"?>
<svg id="Layer_1" data-name="Layer 1" xmlns="http://www.w3.org/2000/svg" viewBox="0 0 14.17 15.93">
  <defs>
    <style>
      .cls-1 {
        fill: #9e9e9e;
        stroke-width: 0px;
      }
    </style>
  </defs>
  <path class="cls-1" d="m1.3,15.93c-.36,0-.66-.13-.92-.38-.26-.26-.38-.56-.38-.92V2.86c0-.36.13-.66.38-.92.26-.26.56-.38.92-.38h1.41v-1c0-.16.05-.29.16-.4.11-.11.24-.16.4-.16s.3.05.41.16c.11.11.16.24.16.4v1h6.52V.55c0-.16.05-.29.16-.39.1-.1.23-.16.39-.16s.29.05.4.16c.11.1.16.23.16.39v1.01h1.4c.36,0,.66.13.92.38.26.26.38.56.38.92v11.76c0,.36-.13.66-.38.92-.26.26-.56.38-.92.38H1.3Zm0-1.05h11.56c.06,0,.12-.03.18-.08.05-.05.08-.11.08-.18V6.5H1.05v8.12c0,.06.03.12.08.18.05.05.11.08.18.08Zm-.26-9.43h12.07v-2.59c0-.06-.03-.12-.08-.18-.05-.05-.11-.08-.18-.08H1.3c-.06,0-.12.03-.18.08-.05.05-.08.11-.08.18v2.59Z"/>
</svg>